<svg width="16" height="16" viewBox="0 0 16 16" fill="none" xmlns="http://www.w3.org/2000/svg">
<g clip-path="url(#clip0_65_862)">
<path d="M14.5 3.5V2.5C14.5 2.23478 14.3946 1.98043 14.2071 1.79289C14.0196 1.60536 13.7652 1.5 13.5 1.5H2.5C2.23478 1.5 1.98043 1.60536 1.79289 1.79289C1.60536 1.98043 1.5 2.23478 1.5 2.5V3.5" stroke="currentColor" stroke-linecap="round" stroke-linejoin="round"/>
<path d="M1.5 12.5V13.5C1.5 13.7652 1.60536 14.0196 1.79289 14.2071C1.98043 14.3946 2.23478 14.5 2.5 14.5H13.5C13.7652 14.5 14.0196 14.3946 14.2071 14.2071C14.3946 14.0196 14.5 13.7652 14.5 13.5V12.75" stroke="currentColor" stroke-linecap="round" stroke-linejoin="round"/>
<path d="M7 6V10" stroke="currentColor" stroke-linecap="round" stroke-linejoin="round"/>
<path d="M12.5 6V10H14.5" stroke="currentColor" stroke-linecap="round" stroke-linejoin="round"/>
<path d="M4.5 10V7.5C4.5 7.10218 4.34196 6.72064 4.06066 6.43934C3.77936 6.15804 3.39782 6 3 6C2.60218 6 2.22064 6.15804 1.93934 6.43934C1.65804 6.72064 1.5 7.10218 1.5 7.5V10" stroke="currentColor" stroke-linecap="round" stroke-linejoin="round"/>
<path d="M1.5 8.5H4.5" stroke="currentColor" stroke-linecap="round" stroke-linejoin="round"/>
<path d="M7 6H8.75C9.44036 6 10 6.55964 10 7.25V7.25C10 7.94036 9.44036 8.5 8.75 8.5H7V6Z" stroke="currentColor" stroke-linecap="round" stroke-linejoin="round"/>
</g>
<defs>
<clipPath id="clip0_65_862">
<rect width="14" height="14" fill="white" transform="translate(1 1)"/>
</clipPath>
</defs>
</svg>
