<svg viewBox="0 0 16 16" fill="none" xmlns="http://www.w3.org/2000/svg">
<g clip-path="url(#clip0_65_186)">
<path d="M11.1205 8.09822C11.1205 7.9308 11.0536 7.77678 10.9264 7.65624L5.62278 2.45981C5.50225 2.34597 5.35492 2.28571 5.18082 2.28571C4.8393 2.28571 4.57144 2.54687 4.57144 2.89508C4.57144 3.06249 4.63841 3.21651 4.74555 3.33035L9.62055 8.09822L4.74555 12.866C4.63841 12.9799 4.57144 13.1272 4.57144 13.3013C4.57144 13.6495 4.8393 13.9107 5.18082 13.9107C5.35492 13.9107 5.50225 13.8504 5.62278 13.7299L10.9264 8.54016C11.0536 8.41296 11.1205 8.26559 11.1205 8.09822Z" fill="currentColor"/>
</g>
<defs>
<clipPath id="clip0_65_186">
<rect width="6.54909" height="11.6317" fill="white" transform="translate(4.57144 2.28571)"/>
</clipPath>
</defs>
</svg>
