<svg width="16" height="16" viewBox="0 0 16 16" fill="none" xmlns="http://www.w3.org/2000/svg">
<g clip-path="url(#clip0_65_875)">
<path d="M14.49 10.6C14.4542 10.2655 14.3176 9.94983 14.0983 9.69473C13.8791 9.43962 13.5875 9.25715 13.2622 9.17149C12.9369 9.08583 12.5932 9.10102 12.2767 9.21504C11.9603 9.32907 11.6859 9.53655 11.49 9.81001L10.49 8.81001C10.49 8.81001 10.41 8.76001 10.38 8.73001C10.7319 7.72322 10.7889 6.6369 10.5444 5.59879C10.3 4.56069 9.76416 3.61398 9 2.87001C8.61113 2.44401 8.13772 2.10376 7.60999 1.87095C7.08226 1.63815 6.5118 1.51791 5.935 1.51791C5.3582 1.51791 4.78774 1.63815 4.26001 1.87095C3.73228 2.10376 3.25887 2.44401 2.87 2.87001C2.44281 3.25692 2.10067 3.72837 1.8653 4.25448C1.62992 4.78059 1.50644 5.34987 1.50267 5.92622C1.49891 6.50257 1.61496 7.07341 1.84345 7.60254C2.07194 8.13168 2.40789 8.60756 2.83 9.00001C3.58897 9.78641 4.56218 10.3326 5.62882 10.5708C6.69546 10.809 7.80857 10.7288 8.83 10.34C8.82809 10.3666 8.82809 10.3934 8.83 10.42L10 11.58C9.79604 11.752 9.63741 11.9714 9.53802 12.219C9.43864 12.4666 9.40155 12.7347 9.43 13C9.47509 13.4389 9.69269 13.842 10.0349 14.1205C10.3772 14.399 10.8161 14.5301 11.255 14.485C11.6939 14.4399 12.097 14.2223 12.3755 13.8801C12.654 13.5378 12.7851 13.0989 12.74 12.66C12.7281 12.589 12.7114 12.5188 12.69 12.45H13C13.2208 12.4303 13.4354 12.3662 13.631 12.2616C13.8265 12.1571 13.9989 12.0142 14.138 11.8415C14.2771 11.6689 14.3799 11.4699 14.4404 11.2566C14.5009 11.0433 14.5178 10.82 14.49 10.6V10.6Z" stroke="currentColor" stroke-linecap="round" stroke-linejoin="round"/>
</g>
<defs>
<clipPath id="clip0_65_875">
<rect width="14" height="14" fill="white" transform="translate(1 1)"/>
</clipPath>
</defs>
</svg>
