<svg viewBox="0 0 24 24" fill="none" xmlns="http://www.w3.org/2000/svg">
<g clip-path="url(#clip0_65_728)">
<path d="M8.3938 18.2139C8.3938 18.3018 8.29272 18.3721 8.16528 18.3721C8.02026 18.3853 7.91919 18.3149 7.91919 18.2139C7.91919 18.126 8.02026 18.0557 8.14771 18.0557C8.27954 18.0425 8.3938 18.1128 8.3938 18.2139ZM7.0271 18.0161C6.99634 18.104 7.08423 18.2051 7.21606 18.2314C7.33032 18.2754 7.46216 18.2314 7.48853 18.1436C7.51489 18.0557 7.4314 17.9546 7.29956 17.915C7.1853 17.8843 7.05786 17.9282 7.0271 18.0161ZM8.96948 17.9414C8.84204 17.9722 8.75415 18.0557 8.76733 18.1567C8.78052 18.2446 8.89478 18.3018 9.02661 18.271C9.15405 18.2402 9.24194 18.1567 9.22876 18.0688C9.21558 17.9854 9.09692 17.9282 8.96948 17.9414ZM11.8611 1.10156C5.76587 1.10156 1.10327 5.729 1.10327 11.8242C1.10327 16.6978 4.17065 20.8682 8.552 22.3359C9.1145 22.437 9.31226 22.0898 9.31226 21.8042C9.31226 21.5317 9.29907 20.0288 9.29907 19.106C9.29907 19.106 6.2229 19.7651 5.5769 17.7964C5.5769 17.7964 5.07593 16.5176 4.35522 16.188C4.35522 16.188 3.34888 15.498 4.42554 15.5112C4.42554 15.5112 5.51978 15.5991 6.12183 16.645C7.08423 18.3413 8.69702 17.8535 9.32544 17.5635C9.42651 16.8604 9.71216 16.3726 10.0286 16.0825C7.57202 15.8101 5.09351 15.4541 5.09351 11.2266C5.09351 10.0181 5.42749 9.41162 6.13062 8.63818C6.01636 8.35254 5.64282 7.1748 6.24487 5.6543C7.16333 5.36865 9.2771 6.84082 9.2771 6.84082C10.156 6.59473 11.1008 6.46729 12.0369 6.46729C12.9729 6.46729 13.9177 6.59473 14.7966 6.84082C14.7966 6.84082 16.9104 5.36426 17.8289 5.6543C18.4309 7.1792 18.0574 8.35254 17.9431 8.63818C18.6462 9.41602 19.0769 10.0225 19.0769 11.2266C19.0769 15.4673 16.4885 15.8057 14.032 16.0825C14.4363 16.4297 14.7791 17.0889 14.7791 18.1216C14.7791 19.6025 14.7659 21.4351 14.7659 21.7954C14.7659 22.0811 14.968 22.4282 15.5261 22.3271C19.9207 20.8682 22.9001 16.6978 22.9001 11.8242C22.9001 5.729 17.9563 1.10156 11.8611 1.10156ZM5.37476 16.2583C5.31763 16.3022 5.33081 16.4033 5.40552 16.4868C5.47583 16.5571 5.5769 16.5879 5.63403 16.5308C5.69116 16.4868 5.67798 16.3857 5.60327 16.3022C5.53296 16.2319 5.43188 16.2012 5.37476 16.2583ZM4.90015 15.9023C4.86938 15.9595 4.91333 16.0298 5.00122 16.0737C5.07153 16.1177 5.15942 16.1045 5.19019 16.043C5.22095 15.9858 5.177 15.9155 5.08911 15.8716C5.00122 15.8452 4.93091 15.8584 4.90015 15.9023ZM6.32397 17.4668C6.25366 17.5239 6.28003 17.6558 6.3811 17.7393C6.48218 17.8403 6.60962 17.8535 6.66675 17.7832C6.72388 17.7261 6.69751 17.5942 6.60962 17.5107C6.51294 17.4097 6.3811 17.3965 6.32397 17.4668ZM5.823 16.8208C5.75269 16.8647 5.75269 16.979 5.823 17.0801C5.89331 17.1812 6.01196 17.2251 6.06909 17.1812C6.1394 17.124 6.1394 17.0098 6.06909 16.9087C6.00757 16.8076 5.89331 16.7637 5.823 16.8208Z" fill="currentColor"/>
</g>
<defs>
<clipPath id="clip0_65_728">
<rect width="21.7969" height="22.5" fill="white" transform="translate(1.10339 0.75)"/>
</clipPath>
</defs>
</svg>
