<svg width="16" height="16" viewBox="0 0 16 16" fill="none" xmlns="http://www.w3.org/2000/svg">
<g clip-path="url(#clip0_65_804)">
<path d="M6 6C7.24264 6 8.25 4.99264 8.25 3.75C8.25 2.50736 7.24264 1.5 6 1.5C4.75736 1.5 3.75 2.50736 3.75 3.75C3.75 4.99264 4.75736 6 6 6Z" stroke="currentColor" stroke-linecap="round" stroke-linejoin="round"/>
<path d="M4.5 13.5H1.5V12C1.50796 11.2378 1.70898 10.49 2.08427 9.82658C2.45957 9.16312 2.9969 8.60561 3.64607 8.20612C4.29525 7.80662 5.03509 7.57819 5.79648 7.54214C6.55788 7.50609 7.31599 7.66362 8 7.99999" stroke="currentColor" stroke-linecap="round" stroke-linejoin="round"/>
<path d="M14.5 9.5L9.79 14.21L7.66 14.5L7.96 12.37L12.66 7.66L14.5 9.5Z" stroke="currentColor" stroke-linecap="round" stroke-linejoin="round"/>
</g>
<defs>
<clipPath id="clip0_65_804">
<rect width="14" height="14" fill="white" transform="translate(1 1)"/>
</clipPath>
</defs>
</svg>
